<?xml version="1.0" encoding="UTF-8" standalone="no"?>
<svg
   version="1.0"
   width="1121.000000pt"
   height="1280.000000pt"
   viewBox="0 0 1121.000000 1280.000000"
   preserveAspectRatio="xMidYMid meet"
   id="svg182"
   sodipodi:docname="flask.svg"
   inkscape:version="1.2.1 (9c6d41e410, 2022-07-14)"
   xmlns:inkscape="http://www.inkscape.org/namespaces/inkscape"
   xmlns:sodipodi="http://sodipodi.sourceforge.net/DTD/sodipodi-0.dtd"
   xmlns="http://www.w3.org/2000/svg"
   xmlns:svg="http://www.w3.org/2000/svg">
  <defs
     id="defs186" />
  <sodipodi:namedview
     id="namedview184"
     pagecolor="#ffffff"
     bordercolor="#000000"
     borderopacity="0.25"
     inkscape:showpageshadow="2"
     inkscape:pageopacity="0.0"
     inkscape:pagecheckerboard="0"
     inkscape:deskcolor="#d1d1d1"
     inkscape:document-units="pt"
     showgrid="false"
     inkscape:zoom="0.47695313"
     inkscape:cx="746.40459"
     inkscape:cy="853.33333"
     inkscape:window-width="1920"
     inkscape:window-height="1046"
     inkscape:window-x="1909"
     inkscape:window-y="78"
     inkscape:window-maximized="1"
     inkscape:current-layer="svg182" />
  <g
     transform="translate(0.000000,1280.000000) scale(0.100000,-0.100000)"
     fill="#000000"
     stroke="none"
     id="g180"
     style="fill:#ececec">
    <path
       d="M3406 12575 c-89 -31 -139 -101 -139 -190 0 -72 18 -102 147 -243 277 -305 386 -545 416 -912 6 -69 16 -836 24 -1705 l13 -1580 -492 -735 c-270 -404 -1012 -1513 -1647 -2465 -1093 -1638 -1160 -1739 -1241 -1905 -191 -392 -277 -731 -277 -1095 1 -485 169 -885 493 -1170 192 -170 461 -293 747 -342 100 -17 303 -18 4135 -18 l4030 0 115 22 c368 71 630 198 854 414 113 108 193 213 260 339 165 315 200 724 96 1136 -81 323 -262 685 -505 1014 -35 47 -755 1145 -1601 2440 l-1539 2355 -3 75 c-17 535 -55 2395 -56 2785 -1 451 1 521 17 605 57 301 172 518 417 784 45 49 88 104 96 122 36 86 3 194 -75 249 l-43 30 -2101 2 c-1787 2 -2108 0 -2141 -12z m3738 -422 c-156 -235 -264 -485 -298 -693 -26 -156 -38 -408 -31 -617 l7 -193 -488 0 c-453 0 -492 -2 -529 -19 -147 -66 -154 -281 -12 -362 l42 -24 498 -3 497 -3 1 -132 c0 -73 8 -426 17 -785 l17 -652 -100 0 c-424 -2 -930 -13 -949 -20 -39 -14 -88 -63 -107 -105 -47 -102 3 -232 106 -277 28 -12 294 -17 958 -18 l107 0 0 -179 c0 -98 4 -202 10 -231 8 -44 66 -138 384 -623 l373 -572 -141 -6 c-77 -4 -313 -7 -523 -8 -210 -1 -393 -5 -406 -10 -40 -15 -89 -63 -108 -106 -46 -101 -6 -214 96 -268 39 -21 50 -21 644 -24 516 -1 611 1 649 13 24 9 45 14 47 12 8 -7 557 -853 561 -862 5 -13 -571 -12 -3431 4 -1028 5 -1983 10 -2121 10 l-251 0 803 1204 c523 784 805 1216 809 1239 4 19 2 509 -4 1088 -6 580 -11 1295 -11 1590 0 622 -9 786 -56 1004 -35 160 -129 372 -245 550 l-58 90 527 5 c290 3 1024 6 1631 8 l1103 2 -18 -27z m-6014 -11389 c0 -2 -9 0 -20 6 -11 6 -20 13 -20 16 0 2 9 0 20 -6 11 -6 20 -13 20 -16z m120 -54 c8 -5 11 -10 5 -10 -5 0 -17 5 -25 10 -8 5 -10 10 -5 10 6 0 17 -5 25 -10z"
       id="path160"
       style="fill:#ececec" />
    <path
       d="M6740 12017 l-75 -42 45 -3 c39 -3 48 0 68 25 23 28 45 63 40 63 -2 0 -37 -19 -78 -43z"
       id="path162"
       style="fill:#ececec" />
    <path
       d="M4390 11930 c98 -144 153 -304 170 -494 8 -94 30 -2347 30 -3065 0 -129 2 -232 5 -230 2 3 5 213 5 466 1 392 3 463 15 473 8 7 15 18 15 24 0 11 87 238 121 313 10 24 19 47 19 53 0 6 9 29 19 53 10 23 42 103 71 177 60 155 69 178 81 202 5 10 9 22 9 28 0 6 8 29 19 53 10 23 33 80 51 127 18 47 41 104 51 127 11 24 19 47 19 53 0 6 9 29 19 53 11 23 28 67 40 97 l20 55 2 -50 c1 -27 5 -160 9 -295 4 -146 5 16 3 400 -2 355 -6 671 -9 704 -18 194 -159 363 -450 539 -72 43 -322 177 -368 196 -4 2 11 -25 34 -59z m777 -1327 c-2 -16 -4 -5 -4 22 0 28 2 40 4 28 2 -13 2 -35 0 -50z m0 -85 c-3 -7 -5 -2 -5 12 0 14 2 19 5 13 2 -7 2 -19 0 -25z m-560 -1380 c-3 -7 -5 -2 -5 12 0 14 2 19 5 13 2 -7 2 -19 0 -25z"
       id="path164"
       style="fill:#ececec" />
    <path
       d="M3900 6550 c-6 -11 -8 -20 -6 -20 3 0 10 9 16 20 6 11 8 20 6 20 -3 0 -10 -9 -16 -20z"
       id="path166"
       style="fill:#ececec" />
    <path
       d="M3850 6470 c-6 -11 -8 -20 -6 -20 3 0 10 9 16 20 6 11 8 20 6 20 -3 0 -10 -9 -16 -20z"
       id="path168"
       style="fill:#ececec" />
    <path
       d="M3770 6340 c-6 -11 -8 -20 -6 -20 3 0 10 9 16 20 6 11 8 20 6 20 -3 0 -10 -9 -16 -20z"
       id="path170"
       style="fill:#ececec" />
    <path
       d="M3720 6260 c-6 -11 -8 -20 -6 -20 3 0 10 9 16 20 6 11 8 20 6 20 -3 0 -10 -9 -16 -20z"
       id="path172"
       style="fill:#ececec" />
    <path
       d="M3688 6208 c-8 -13 -24 -41 -37 -63 -26 -47 3 -10 37 47 24 40 24 54 0 16z"
       id="path174"
       style="fill:#ececec" />
    <path
       d="M3614 6088 c-4 -7 -14 -24 -22 -38 -14 -24 -13 -24 3 -5 20 24 37 55 31 55 -3 0 -8 -6 -12 -12z"
       id="path176"
       style="fill:#ececec" />
    <path
       d="M3386 5720 c-102 -166 -186 -303 -186 -305 0 -3 30 -4 68 -3 56 1 59 2 19 5 -46 4 -48 5 -44 31 3 15 78 146 167 292 89 146 164 268 167 273 2 4 2 7 0 7 -3 0 -88 -135 -191 -300z"
       id="path178"
       style="fill:#ececec" />
  </g>
</svg>
